<svg width="150" height="150" viewBox="0 0 150 150" fill="none" xmlns="http://www.w3.org/2000/svg">
<path d="M68.75 25H25C21.6848 25 18.5054 26.317 16.1612 28.6612C13.817 31.0054 12.5 34.1848 12.5 37.5V125C12.5 128.315 13.817 131.495 16.1612 133.839C18.5054 136.183 21.6848 137.5 25 137.5H112.5C115.815 137.5 118.995 136.183 121.339 133.839C123.683 131.495 125 128.315 125 125V81.25" stroke="#00ABFF" stroke-width="8.33333" stroke-linecap="round" stroke-linejoin="round"/>
<path d="M115.625 15.625C118.111 13.1386 121.484 11.7418 125 11.7418C128.516 11.7418 131.889 13.1386 134.375 15.625C136.861 18.1114 138.258 21.4837 138.258 25C138.258 28.5163 136.861 31.8886 134.375 34.375L75 93.75L50 100L56.25 75L115.625 15.625Z" stroke="#00ABFF" stroke-width="8.33333" stroke-linecap="round" stroke-linejoin="round"/>
</svg>
