<svg width="150" height="150" viewBox="0 0 150 150" fill="none" xmlns="http://www.w3.org/2000/svg">
<path d="M118.75 18.75H31.25C24.3464 18.75 18.75 24.3464 18.75 31.25V118.75C18.75 125.654 24.3464 131.25 31.25 131.25H118.75C125.654 131.25 131.25 125.654 131.25 118.75V31.25C131.25 24.3464 125.654 18.75 118.75 18.75Z" stroke="#092896" stroke-width="8.33333" stroke-linecap="round" stroke-linejoin="round"/>
<path d="M53.125 62.5C58.3027 62.5 62.5 58.3027 62.5 53.125C62.5 47.9473 58.3027 43.75 53.125 43.75C47.9473 43.75 43.75 47.9473 43.75 53.125C43.75 58.3027 47.9473 62.5 53.125 62.5Z" stroke="#092896" stroke-width="8.33333" stroke-linecap="round" stroke-linejoin="round"/>
<path d="M131.25 93.75L100 62.5L31.25 131.25" stroke="#092896" stroke-width="8.33333" stroke-linecap="round" stroke-linejoin="round"/>
</svg>
